<svg width="512" height="512" viewBox="0 0 512 512" fill="none" xmlns="http://www.w3.org/2000/svg" role="img" aria-labelledby="title desc">
  <title id="title">ARK Websites Logo</title>
  <desc id="desc">A laptop turned in Y-axis perspective with ARK on the screen and green falling code behind it.</desc>

  <defs>
    <linearGradient id="screenGradient" x1="150" y1="145" x2="380" y2="315" gradientUnits="userSpaceOnUse">
      <stop stop-color="#0F172A"/>
      <stop offset="1" stop-color="#1E3A8A"/>
    </linearGradient>
    <linearGradient id="sideGradient" x1="363" y1="137" x2="414" y2="320" gradientUnits="userSpaceOnUse">
      <stop stop-color="#1E293B"/>
      <stop offset="1" stop-color="#020617"/>
    </linearGradient>
    <linearGradient id="bodyGradient" x1="101" y1="335" x2="414" y2="401" gradientUnits="userSpaceOnUse">
      <stop stop-color="#CBD5E1"/>
      <stop offset="1" stop-color="#64748B"/>
    </linearGradient>
    <filter id="shadow" x="58" y="78" width="406" height="380" filterUnits="userSpaceOnUse" color-interpolation-filters="sRGB">
      <feDropShadow dx="0" dy="18" stdDeviation="18" flood-color="#0F172A" flood-opacity="0.25"/>
    </filter>
  </defs>

  <rect width="512" height="512" rx="112" fill="#F8FAFC"/>
  <circle cx="256" cy="256" r="206" fill="#EFF6FF"/>

  <g opacity="0.75" font-family="monospace" font-size="22" font-weight="700" fill="#22C55E">
    <text x="102" y="104">01</text>
    <text x="376" y="103">10</text>
    <text x="82" y="156">&lt;/&gt;</text>
    <text x="398" y="166">01</text>
    <text x="105" y="220">10</text>
    <text x="405" y="235">{ }</text>
    <text x="77" y="292">01</text>
    <text x="386" y="314">&lt;/&gt;</text>
    <text x="112" y="365">{ }</text>
    <text x="363" y="392">10</text>
  </g>

  <g filter="url(#shadow)">
    <!-- screen drawn as a trapezoid to fake a Y-axis turn, with the right edge farther away -->
    <path d="M126 145C126 134 135 126 146 127L361 139C371 140 379 149 379 159V321L126 309V145Z" fill="#111827"/>
    <path d="M145 153C145 148 149 144 154 144L348 155C353 155 357 160 357 165V299L145 289V153Z" fill="url(#screenGradient)"/>
    <path d="M379 159L407 179C412 183 415 188 415 194V330L379 321V159Z" fill="url(#sideGradient)"/>
    <path d="M357 165L394 189V304L357 299V165Z" fill="#0B1120" opacity="0.9"/>

    <!-- laptop base also uses perspective, wider near side and narrower far side -->
    <path d="M96 328L389 342L436 390C443 397 438 409 428 409H86C76 409 71 397 78 389L96 328Z" fill="url(#bodyGradient)"/>
    <path d="M96 328L389 342L410 363L88 350L96 328Z" fill="#94A3B8"/>
    <path d="M206 371L302 376L316 393H193L206 371Z" fill="#475569" opacity="0.8"/>

    <g transform="matrix(0.94 0.045 0 1 13 -4)">
      <text x="256" y="235" text-anchor="middle" font-family="Arial, Helvetica, sans-serif" font-size="72" font-weight="900" letter-spacing="4" fill="#FFFFFF">ARK</text>
      <path d="M194 255H318" stroke="#22C55E" stroke-width="7" stroke-linecap="round"/>
    </g>
  </g>
</svg>
